<mxfile host="Electron" modified="2023-06-04T15:51:11.537Z" agent="Mozilla/5.0 (Windows NT 10.0; Win64; x64) AppleWebKit/537.36 (KHTML, like Gecko) draw.io/21.2.8 Chrome/112.0.5615.165 Electron/24.2.0 Safari/537.36" etag="4MXfzhPONUTHrD6A6bl4" version="21.2.8" type="device">
  <diagram name="Page-1" id="_c6dFrIlmLazjmAGrKgl">
    <mxGraphModel dx="863" dy="505" grid="1" gridSize="10" guides="1" tooltips="1" connect="1" arrows="1" fold="1" page="1" pageScale="1" pageWidth="850" pageHeight="1100" math="0" shadow="0">
      <root>
        <mxCell id="0" />
        <mxCell id="1" parent="0" />
        <mxCell id="F9rXZxQzrMTaSx6cM9y_-4" value="" style="edgeStyle=orthogonalEdgeStyle;rounded=0;orthogonalLoop=1;jettySize=auto;html=1;" edge="1" parent="1" source="F9rXZxQzrMTaSx6cM9y_-1">
          <mxGeometry relative="1" as="geometry">
            <mxPoint x="440" y="80" as="targetPoint" />
          </mxGeometry>
        </mxCell>
        <mxCell id="F9rXZxQzrMTaSx6cM9y_-1" value="Begin" style="rounded=1;whiteSpace=wrap;html=1;" vertex="1" parent="1">
          <mxGeometry x="410" y="40" width="60" height="20" as="geometry" />
        </mxCell>
        <mxCell id="F9rXZxQzrMTaSx6cM9y_-2" value="&lt;div style=&quot;color: rgb(204, 204, 204); background-color: rgb(31, 31, 31); font-family: Consolas, &amp;quot;Courier New&amp;quot;, monospace; font-weight: normal; font-size: 14px; line-height: 19px;&quot;&gt;&lt;div&gt;&lt;span style=&quot;color: #569cd6;&quot;&gt;string&lt;/span&gt;&lt;span style=&quot;color: #cccccc;&quot;&gt;[] &lt;/span&gt;&lt;span style=&quot;color: #9cdcfe;&quot;&gt;array&lt;/span&gt;&lt;span style=&quot;color: #cccccc;&quot;&gt; &lt;/span&gt;&lt;span style=&quot;color: #d4d4d4;&quot;&gt;=&lt;/span&gt;&lt;span style=&quot;color: #cccccc;&quot;&gt; &lt;/span&gt;&lt;span style=&quot;color: #569cd6;&quot;&gt;new&lt;/span&gt;&lt;span style=&quot;color: #cccccc;&quot;&gt; &lt;/span&gt;&lt;span style=&quot;color: #569cd6;&quot;&gt;string&lt;/span&gt;&lt;span style=&quot;color: #cccccc;&quot;&gt;[] {&lt;/span&gt;&lt;span style=&quot;color: #ce9178;&quot;&gt;&quot;Hello&quot;&lt;/span&gt;&lt;span style=&quot;color: #cccccc;&quot;&gt;, &lt;/span&gt;&lt;span style=&quot;color: #ce9178;&quot;&gt;&quot;2&quot;&lt;/span&gt;&lt;span style=&quot;color: #cccccc;&quot;&gt;, &lt;/span&gt;&lt;span style=&quot;color: #ce9178;&quot;&gt;&quot;world&quot;&lt;/span&gt;&lt;span style=&quot;color: #cccccc;&quot;&gt;, &lt;/span&gt;&lt;span style=&quot;color: #ce9178;&quot;&gt;&quot;:-)&quot;&lt;/span&gt;&lt;span style=&quot;color: #cccccc;&quot;&gt;};&lt;/span&gt;&lt;/div&gt;&lt;div&gt;&lt;span style=&quot;color: #569cd6;&quot;&gt;string&lt;/span&gt;&lt;span style=&quot;color: #cccccc;&quot;&gt;[] &lt;/span&gt;&lt;span style=&quot;color: #9cdcfe;&quot;&gt;array2&lt;/span&gt;&lt;span style=&quot;color: #cccccc;&quot;&gt; &lt;/span&gt;&lt;span style=&quot;color: #d4d4d4;&quot;&gt;=&lt;/span&gt;&lt;span style=&quot;color: #cccccc;&quot;&gt; &lt;/span&gt;&lt;span style=&quot;color: #569cd6;&quot;&gt;new&lt;/span&gt;&lt;span style=&quot;color: #cccccc;&quot;&gt; &lt;/span&gt;&lt;span style=&quot;color: #569cd6;&quot;&gt;string&lt;/span&gt;&lt;span style=&quot;color: #cccccc;&quot;&gt;[] {};&lt;/span&gt;&lt;/div&gt;&lt;br&gt;&lt;div&gt;&lt;span style=&quot;color: #c586c0;&quot;&gt;for&lt;/span&gt;&lt;span style=&quot;color: #cccccc;&quot;&gt; (&lt;/span&gt;&lt;span style=&quot;color: #569cd6;&quot;&gt;int&lt;/span&gt;&lt;span style=&quot;color: #cccccc;&quot;&gt; &lt;/span&gt;&lt;span style=&quot;color: #9cdcfe;&quot;&gt;i&lt;/span&gt;&lt;span style=&quot;color: #cccccc;&quot;&gt; &lt;/span&gt;&lt;span style=&quot;color: #d4d4d4;&quot;&gt;=&lt;/span&gt;&lt;span style=&quot;color: #cccccc;&quot;&gt; &lt;/span&gt;&lt;span style=&quot;color: #b5cea8;&quot;&gt;0&lt;/span&gt;&lt;span style=&quot;color: #cccccc;&quot;&gt;; &lt;/span&gt;&lt;span style=&quot;color: #9cdcfe;&quot;&gt;i&lt;/span&gt;&lt;span style=&quot;color: #cccccc;&quot;&gt; &lt;/span&gt;&lt;span style=&quot;color: #d4d4d4;&quot;&gt;&amp;lt;&lt;/span&gt;&lt;span style=&quot;color: #cccccc;&quot;&gt; &lt;/span&gt;&lt;span style=&quot;color: #9cdcfe;&quot;&gt;array&lt;/span&gt;&lt;span style=&quot;color: #d4d4d4;&quot;&gt;.&lt;/span&gt;&lt;span style=&quot;color: #9cdcfe;&quot;&gt;Length&lt;/span&gt;&lt;span style=&quot;color: #cccccc;&quot;&gt;; &lt;/span&gt;&lt;span style=&quot;color: #9cdcfe;&quot;&gt;i&lt;/span&gt;&lt;span style=&quot;color: #d4d4d4;&quot;&gt;++&lt;/span&gt;&lt;span style=&quot;color: #cccccc;&quot;&gt;)&lt;/span&gt;&lt;/div&gt;&lt;div&gt;&lt;span style=&quot;color: #cccccc;&quot;&gt;{ &amp;nbsp; &lt;/span&gt;&lt;/div&gt;&lt;div&gt;&lt;span style=&quot;color: #cccccc;&quot;&gt;&amp;nbsp; &amp;nbsp; &lt;/span&gt;&lt;span style=&quot;color: #c586c0;&quot;&gt;if&lt;/span&gt;&lt;span style=&quot;color: #cccccc;&quot;&gt;(&lt;/span&gt;&lt;span style=&quot;color: #9cdcfe;&quot;&gt;array&lt;/span&gt;&lt;span style=&quot;color: #cccccc;&quot;&gt;[&lt;/span&gt;&lt;span style=&quot;color: #9cdcfe;&quot;&gt;i&lt;/span&gt;&lt;span style=&quot;color: #cccccc;&quot;&gt;]&lt;/span&gt;&lt;span style=&quot;color: #d4d4d4;&quot;&gt;.&lt;/span&gt;&lt;span style=&quot;color: #9cdcfe;&quot;&gt;Length&lt;/span&gt;&lt;span style=&quot;color: #cccccc;&quot;&gt; &lt;/span&gt;&lt;span style=&quot;color: #d4d4d4;&quot;&gt;&amp;lt;=&lt;/span&gt;&lt;span style=&quot;color: #b5cea8;&quot;&gt;3&lt;/span&gt;&lt;span style=&quot;color: #cccccc;&quot;&gt;)&lt;/span&gt;&lt;/div&gt;&lt;div&gt;&lt;span style=&quot;color: #cccccc;&quot;&gt;&amp;nbsp; &amp;nbsp; {&lt;/span&gt;&lt;/div&gt;&lt;div&gt;&lt;span style=&quot;color: #cccccc;&quot;&gt;&amp;nbsp; &amp;nbsp; &lt;/span&gt;&lt;span style=&quot;color: #4ec9b0;&quot;&gt;Array&lt;/span&gt;&lt;span style=&quot;color: #d4d4d4;&quot;&gt;.&lt;/span&gt;&lt;span style=&quot;color: #dcdcaa;&quot;&gt;Resize&lt;/span&gt;&lt;span style=&quot;color: #cccccc;&quot;&gt;(&lt;/span&gt;&lt;span style=&quot;color: #569cd6;&quot;&gt;ref&lt;/span&gt;&lt;span style=&quot;color: #cccccc;&quot;&gt; &lt;/span&gt;&lt;span style=&quot;color: #9cdcfe;&quot;&gt;array2&lt;/span&gt;&lt;span style=&quot;color: #cccccc;&quot;&gt;, &lt;/span&gt;&lt;span style=&quot;color: #9cdcfe;&quot;&gt;array2&lt;/span&gt;&lt;span style=&quot;color: #d4d4d4;&quot;&gt;.&lt;/span&gt;&lt;span style=&quot;color: #9cdcfe;&quot;&gt;Length&lt;/span&gt;&lt;span style=&quot;color: #cccccc;&quot;&gt; &lt;/span&gt;&lt;span style=&quot;color: #d4d4d4;&quot;&gt;+&lt;/span&gt;&lt;span style=&quot;color: #cccccc;&quot;&gt; &lt;/span&gt;&lt;span style=&quot;color: #b5cea8;&quot;&gt;1&lt;/span&gt;&lt;span style=&quot;color: #cccccc;&quot;&gt; );&lt;/span&gt;&lt;/div&gt;&lt;div&gt;&lt;span style=&quot;color: #cccccc;&quot;&gt;&amp;nbsp; &amp;nbsp; &lt;/span&gt;&lt;span style=&quot;color: #9cdcfe;&quot;&gt;array2&lt;/span&gt;&lt;span style=&quot;color: #cccccc;&quot;&gt;[&lt;/span&gt;&lt;span style=&quot;color: #9cdcfe;&quot;&gt;array2&lt;/span&gt;&lt;span style=&quot;color: #d4d4d4;&quot;&gt;.&lt;/span&gt;&lt;span style=&quot;color: #9cdcfe;&quot;&gt;Length&lt;/span&gt;&lt;span style=&quot;color: #cccccc;&quot;&gt; &lt;/span&gt;&lt;span style=&quot;color: #d4d4d4;&quot;&gt;-&lt;/span&gt;&lt;span style=&quot;color: #cccccc;&quot;&gt; &lt;/span&gt;&lt;span style=&quot;color: #b5cea8;&quot;&gt;1&lt;/span&gt;&lt;span style=&quot;color: #cccccc;&quot;&gt;] &lt;/span&gt;&lt;span style=&quot;color: #d4d4d4;&quot;&gt;=&lt;/span&gt;&lt;span style=&quot;color: #cccccc;&quot;&gt; &lt;/span&gt;&lt;span style=&quot;color: #9cdcfe;&quot;&gt;array&lt;/span&gt;&lt;span style=&quot;color: #cccccc;&quot;&gt;[&lt;/span&gt;&lt;span style=&quot;color: #9cdcfe;&quot;&gt;i&lt;/span&gt;&lt;span style=&quot;color: #cccccc;&quot;&gt;];&lt;/span&gt;&lt;/div&gt;&lt;div&gt;&lt;span style=&quot;color: #cccccc;&quot;&gt;&amp;nbsp; &amp;nbsp; }&lt;/span&gt;&lt;/div&gt;&lt;div&gt;&lt;span style=&quot;color: #cccccc;&quot;&gt;}&lt;/span&gt;&lt;/div&gt;&lt;br&gt;&lt;div&gt;&lt;span style=&quot;color: #4ec9b0;&quot;&gt;System&lt;/span&gt;&lt;span style=&quot;color: #d4d4d4;&quot;&gt;.&lt;/span&gt;&lt;span style=&quot;color: #4ec9b0;&quot;&gt;Console&lt;/span&gt;&lt;span style=&quot;color: #d4d4d4;&quot;&gt;.&lt;/span&gt;&lt;span style=&quot;color: #dcdcaa;&quot;&gt;WriteLine&lt;/span&gt;&lt;span style=&quot;color: #cccccc;&quot;&gt;(&lt;/span&gt;&lt;span style=&quot;color: #ce9178;&quot;&gt;&#39;[&#39;&lt;/span&gt;&lt;span style=&quot;color: #d4d4d4;&quot;&gt;+&lt;/span&gt;&lt;span style=&quot;color: #cccccc;&quot;&gt; &lt;/span&gt;&lt;span style=&quot;color: #4ec9b0;&quot;&gt;String&lt;/span&gt;&lt;span style=&quot;color: #d4d4d4;&quot;&gt;.&lt;/span&gt;&lt;span style=&quot;color: #dcdcaa;&quot;&gt;Join&lt;/span&gt;&lt;span style=&quot;color: #cccccc;&quot;&gt;(&lt;/span&gt;&lt;span style=&quot;color: #ce9178;&quot;&gt;&#39;,&#39;&lt;/span&gt;&lt;span style=&quot;color: #cccccc;&quot;&gt;, &lt;/span&gt;&lt;span style=&quot;color: #9cdcfe;&quot;&gt;array&lt;/span&gt;&lt;span style=&quot;color: #cccccc;&quot;&gt;) &lt;/span&gt;&lt;span style=&quot;color: #d4d4d4;&quot;&gt;+&lt;/span&gt;&lt;span style=&quot;color: #cccccc;&quot;&gt; &lt;/span&gt;&lt;span style=&quot;color: #ce9178;&quot;&gt;&#39;]&#39;&lt;/span&gt;&lt;span style=&quot;color: #cccccc;&quot;&gt;);&lt;/span&gt;&lt;/div&gt;&lt;div&gt;&lt;span style=&quot;color: #4ec9b0;&quot;&gt;System&lt;/span&gt;&lt;span style=&quot;color: #d4d4d4;&quot;&gt;.&lt;/span&gt;&lt;span style=&quot;color: #4ec9b0;&quot;&gt;Console&lt;/span&gt;&lt;span style=&quot;color: #d4d4d4;&quot;&gt;.&lt;/span&gt;&lt;span style=&quot;color: #dcdcaa;&quot;&gt;WriteLine&lt;/span&gt;&lt;span style=&quot;color: #cccccc;&quot;&gt;(&lt;/span&gt;&lt;span style=&quot;color: #ce9178;&quot;&gt;&#39;[&#39;&lt;/span&gt;&lt;span style=&quot;color: #d4d4d4;&quot;&gt;+&lt;/span&gt;&lt;span style=&quot;color: #cccccc;&quot;&gt; &lt;/span&gt;&lt;span style=&quot;color: #4ec9b0;&quot;&gt;String&lt;/span&gt;&lt;span style=&quot;color: #d4d4d4;&quot;&gt;.&lt;/span&gt;&lt;span style=&quot;color: #dcdcaa;&quot;&gt;Join&lt;/span&gt;&lt;span style=&quot;color: #cccccc;&quot;&gt;(&lt;/span&gt;&lt;span style=&quot;color: #ce9178;&quot;&gt;&#39;,&#39;&lt;/span&gt;&lt;span style=&quot;color: #cccccc;&quot;&gt;, &lt;/span&gt;&lt;span style=&quot;color: #9cdcfe;&quot;&gt;array2&lt;/span&gt;&lt;span style=&quot;color: #cccccc;&quot;&gt;) &lt;/span&gt;&lt;span style=&quot;color: #d4d4d4;&quot;&gt;+&lt;/span&gt;&lt;span style=&quot;color: #cccccc;&quot;&gt; &lt;/span&gt;&lt;span style=&quot;color: #ce9178;&quot;&gt;&#39;]&#39;&lt;/span&gt;&lt;span style=&quot;color: #cccccc;&quot;&gt;);&lt;/span&gt;&lt;/div&gt;&lt;/div&gt;" style="text;whiteSpace=wrap;html=1;" vertex="1" parent="1">
          <mxGeometry x="20" y="550" width="490" height="270" as="geometry" />
        </mxCell>
        <mxCell id="F9rXZxQzrMTaSx6cM9y_-6" value="" style="edgeStyle=orthogonalEdgeStyle;rounded=0;orthogonalLoop=1;jettySize=auto;html=1;" edge="1" parent="1" target="F9rXZxQzrMTaSx6cM9y_-5">
          <mxGeometry relative="1" as="geometry">
            <mxPoint x="440" y="130" as="sourcePoint" />
          </mxGeometry>
        </mxCell>
        <mxCell id="F9rXZxQzrMTaSx6cM9y_-3" value="array =&amp;nbsp;[“Hello”, “2”, “world”, “:-)”] &lt;br&gt;array2 = []&lt;br&gt;int i = 0" style="rounded=0;whiteSpace=wrap;html=1;" vertex="1" parent="1">
          <mxGeometry x="345" y="80" width="190" height="50" as="geometry" />
        </mxCell>
        <mxCell id="F9rXZxQzrMTaSx6cM9y_-8" value="Yes" style="edgeStyle=orthogonalEdgeStyle;rounded=0;orthogonalLoop=1;jettySize=auto;html=1;" edge="1" parent="1" source="F9rXZxQzrMTaSx6cM9y_-5" target="F9rXZxQzrMTaSx6cM9y_-7">
          <mxGeometry relative="1" as="geometry" />
        </mxCell>
        <mxCell id="F9rXZxQzrMTaSx6cM9y_-18" value="No" style="edgeStyle=orthogonalEdgeStyle;rounded=0;orthogonalLoop=1;jettySize=auto;html=1;" edge="1" parent="1" source="F9rXZxQzrMTaSx6cM9y_-5" target="F9rXZxQzrMTaSx6cM9y_-17">
          <mxGeometry relative="1" as="geometry" />
        </mxCell>
        <mxCell id="F9rXZxQzrMTaSx6cM9y_-5" value="i &amp;lt; array.Length" style="rhombus;whiteSpace=wrap;html=1;" vertex="1" parent="1">
          <mxGeometry x="375" y="160" width="130" height="80" as="geometry" />
        </mxCell>
        <mxCell id="F9rXZxQzrMTaSx6cM9y_-10" value="Yes" style="edgeStyle=orthogonalEdgeStyle;rounded=0;orthogonalLoop=1;jettySize=auto;html=1;" edge="1" parent="1" source="F9rXZxQzrMTaSx6cM9y_-7" target="F9rXZxQzrMTaSx6cM9y_-9">
          <mxGeometry relative="1" as="geometry" />
        </mxCell>
        <mxCell id="F9rXZxQzrMTaSx6cM9y_-7" value="array[i] &amp;lt;= 3" style="rhombus;whiteSpace=wrap;html=1;" vertex="1" parent="1">
          <mxGeometry x="370" y="280" width="140" height="80" as="geometry" />
        </mxCell>
        <mxCell id="F9rXZxQzrMTaSx6cM9y_-9" value="Resize(array2.Length +1)&lt;br&gt;array2[array2.Lenght - 1] = array[i]" style="rounded=0;whiteSpace=wrap;html=1;" vertex="1" parent="1">
          <mxGeometry x="340" y="400" width="200" height="60" as="geometry" />
        </mxCell>
        <mxCell id="F9rXZxQzrMTaSx6cM9y_-12" value="" style="endArrow=classic;html=1;rounded=0;exitX=0.5;exitY=1;exitDx=0;exitDy=0;entryX=0.5;entryY=1;entryDx=0;entryDy=0;" edge="1" parent="1" source="F9rXZxQzrMTaSx6cM9y_-9" target="F9rXZxQzrMTaSx6cM9y_-13">
          <mxGeometry width="50" height="50" relative="1" as="geometry">
            <mxPoint x="300" y="490" as="sourcePoint" />
            <mxPoint x="40" y="520" as="targetPoint" />
            <Array as="points">
              <mxPoint x="440" y="480" />
              <mxPoint x="270" y="480" />
              <mxPoint x="100" y="480" />
            </Array>
          </mxGeometry>
        </mxCell>
        <mxCell id="F9rXZxQzrMTaSx6cM9y_-13" value="i = i+1" style="rounded=0;whiteSpace=wrap;html=1;" vertex="1" parent="1">
          <mxGeometry x="40" y="290" width="120" height="60" as="geometry" />
        </mxCell>
        <mxCell id="F9rXZxQzrMTaSx6cM9y_-14" value="" style="endArrow=classic;html=1;rounded=0;exitX=0.5;exitY=0;exitDx=0;exitDy=0;entryX=0;entryY=0.5;entryDx=0;entryDy=0;" edge="1" parent="1" source="F9rXZxQzrMTaSx6cM9y_-13" target="F9rXZxQzrMTaSx6cM9y_-5">
          <mxGeometry width="50" height="50" relative="1" as="geometry">
            <mxPoint x="300" y="350" as="sourcePoint" />
            <mxPoint x="370" y="200" as="targetPoint" />
            <Array as="points">
              <mxPoint x="100" y="200" />
            </Array>
          </mxGeometry>
        </mxCell>
        <mxCell id="F9rXZxQzrMTaSx6cM9y_-15" value="" style="endArrow=classic;html=1;rounded=0;exitX=0;exitY=0.5;exitDx=0;exitDy=0;entryX=1;entryY=0.5;entryDx=0;entryDy=0;" edge="1" parent="1" source="F9rXZxQzrMTaSx6cM9y_-7" target="F9rXZxQzrMTaSx6cM9y_-13">
          <mxGeometry width="50" height="50" relative="1" as="geometry">
            <mxPoint x="300" y="350" as="sourcePoint" />
            <mxPoint x="350" y="300" as="targetPoint" />
          </mxGeometry>
        </mxCell>
        <mxCell id="F9rXZxQzrMTaSx6cM9y_-16" value="No" style="edgeLabel;html=1;align=center;verticalAlign=middle;resizable=0;points=[];" vertex="1" connectable="0" parent="F9rXZxQzrMTaSx6cM9y_-15">
          <mxGeometry x="0.0719" y="-1" relative="1" as="geometry">
            <mxPoint as="offset" />
          </mxGeometry>
        </mxCell>
        <mxCell id="F9rXZxQzrMTaSx6cM9y_-20" value="" style="edgeStyle=orthogonalEdgeStyle;rounded=0;orthogonalLoop=1;jettySize=auto;html=1;" edge="1" parent="1" source="F9rXZxQzrMTaSx6cM9y_-17" target="F9rXZxQzrMTaSx6cM9y_-19">
          <mxGeometry relative="1" as="geometry" />
        </mxCell>
        <mxCell id="F9rXZxQzrMTaSx6cM9y_-17" value="print(array)&lt;br&gt;print(array2)" style="shape=parallelogram;perimeter=parallelogramPerimeter;whiteSpace=wrap;html=1;fixedSize=1;" vertex="1" parent="1">
          <mxGeometry x="540" y="180" width="120" height="40" as="geometry" />
        </mxCell>
        <mxCell id="F9rXZxQzrMTaSx6cM9y_-19" value="End" style="rounded=1;whiteSpace=wrap;html=1;" vertex="1" parent="1">
          <mxGeometry x="690" y="185" width="90" height="30" as="geometry" />
        </mxCell>
      </root>
    </mxGraphModel>
  </diagram>
</mxfile>
